# xmcd
#
# Track frame offsets:
#	150
#	18378
#	35679
#	53468
#	72176
#	84935
#	101694
#	116895
#	135564
#	150462
#	166326
#	179391
#	195227
#	212126
#	226605
#	241189
#	255997
#	273749
#	291473
#
# Disc length: 4133 seconds
#
# Revision: 1
# Processed by: cddbd v1.5.2PL0 Copyright (c) Steve Scherf et al.
# Submitted via: audiograbber 1.83.01
#
DISCID=fd102313
DTITLE=Various Artist - Hott Country 148
DYEAR=2008
DGENRE=Country
TTITLE0=Aaron Pritchett - Let's Get Rowdy
TTITLE1=Keith Urban - You Look Good In My Shirt
TTITLE2=Brad Paisley - Waitin`On A Woman
TTITLE3=Kathleen Edwards - I Make The Dough You Get The Glory
TTITLE4=Jessica Simpson - Come On Over
TTITLE5=Taylor Swift - Should`ve Said No
TTITLE6=Jimmy Wayne - Do You Believe In Me
TTITLE7=Jamey Johnson - In Color
TTITLE8=Jamie Warren - She Just Loves To Dance
TTITLE9=Crystal Shawanda - What Do I Have To Do
TTITLE10=Johnny Reid - Out Of The Blue
TTITLE11=Sugarland - All I Want To Do
TTITLE12=Craig Morgan - Love Remembers
TTITLE13=Kellie Pickler - Don`t You Know You`re Beautiful
TTITLE14=Jason Blaine - My First Car
TTITLE15=Alex J Robinson - That;s Who I Am
TTITLE16=David Nail - I`m About To Come Alive
TTITLE17=Paul Brandt - Risk ( Radio Edit )
TTITLE18=Aaron Pritchett - Hold My Beer
EXTD=June 2008
EXTT0=
EXTT1=
EXTT2=
EXTT3=
EXTT4=
EXTT5=
EXTT6=
EXTT7=
EXTT8=
EXTT9=
EXTT10=
EXTT11=
EXTT12=
EXTT13=
EXTT14=
EXTT15=
EXTT16=
EXTT17=
EXTT18=
PLAYORDER=
